<?xml version="1.0" encoding="UTF-8" standalone="no"?>
<svg
   xmlns:dc="http://purl.org/dc/elements/1.1/"
   xmlns:cc="http://creativecommons.org/ns#"
   xmlns:rdf="http://www.w3.org/1999/02/22-rdf-syntax-ns#"
   xmlns:svg="http://www.w3.org/2000/svg"
   xmlns="http://www.w3.org/2000/svg"
   xml:space="preserve"
   enable-background="new 0 0 67.409 33.206"
   viewBox="0 0 67.409 33.206"
   height="33.206px"
   width="67.409px"
   y="0px"
   x="0px"
   id="Layer_1"
   version="1.1"><metadata
     id="metadata57"><rdf:RDF><cc:Work
         rdf:about=""><dc:format>image/svg+xml</dc:format><dc:type
           rdf:resource="http://purl.org/dc/dcmitype/StillImage" /></cc:Work></rdf:RDF></metadata><defs
     id="defs55" /><g
     id="Menu_Pressed"><path
       id="path2"
       d="M66.909,16.603c0,8.903-7.229,16.103-16.102,16.103   c-8.901,0-16.102-7.2-16.102-16.103c0-8.896,7.2-16.103,16.102-16.103C59.681,0.5,66.909,7.707,66.909,16.603z"
       stroke-miterlimit="10"
       stroke="#FFFFFF"
       fill="#F5F5F5" /><g
       id="g10"><rect
         id="rect4"
         height="1.552"
         width="14.361"
         fill="#929493"
         y="11.978"
         x="43.612" /><rect
         id="rect6"
         height="1.552"
         width="14.361"
         fill="#929493"
         y="15.896"
         x="43.612" /><rect
         id="rect8"
         height="1.532"
         width="14.361"
         fill="#929493"
         y="19.706"
         x="43.612" /></g></g><g
     id="Switcher_PRessed"><path
       id="path13"
       d="M32.706,16.603c0,8.903-7.201,16.103-16.103,16.103   c-8.872,0-16.103-7.2-16.103-16.103C0.5,7.707,7.731,0.5,16.603,0.5C25.505,0.5,32.706,7.707,32.706,16.603z"
       stroke-miterlimit="10"
       stroke="#FFFFFF"
       fill="#F5F5F5" /><g
       id="g19"><polygon
         id="polygon15"
         points="14.087,16.502 11.056,16.502 11.056,12.718 16.528,12.718 16.528,14.039 18.328,14.039     18.328,10.979 9.437,10.979 9.437,18.369 14.087,18.369   "
         fill="#929493" /><path
         id="path17"
         d="M14.837,14.663v7.584h8.96v-7.584H14.837z M21.998,20.447h-5.47v-3.945h5.47V20.447z"
         fill="#929493" /></g></g><g
     id="g22" /><g
     id="g24" /><g
     id="g26" /><g
     id="g28" /><g
     id="g30" /><g
     id="g32" /><g
     id="g34" /><g
     id="g36" /><g
     id="g38" /><g
     id="g40" /><g
     id="g42" /><g
     id="g44" /><g
     id="g46" /><g
     id="g48" /><g
     id="g50" /></svg>